<svg id="Group_108" data-name="Group 108" xmlns="http://www.w3.org/2000/svg" width="21" height="21" viewBox="0 0 21 21">
  <path id="Path_241" data-name="Path 241" d="M20.947,17.994a.82.82,0,0,0-1.606.334.857.857,0,0,1-.174.719.833.833,0,0,1-.656.312H2.49a.834.834,0,0,1-.656-.312.857.857,0,0,1-.174-.719,9.063,9.063,0,0,1,8.623-7.177q.108,0,.217,0t.218,0a9.024,9.024,0,0,1,7.288,4.006.82.82,0,1,0,1.363-.914,10.67,10.67,0,0,0-5.529-4.2,5.578,5.578,0,1,0-6.677,0A10.669,10.669,0,0,0,.054,17.994,2.492,2.492,0,0,0,2.49,21H18.511a2.492,2.492,0,0,0,2.436-3.006ZM6.563,5.578A3.938,3.938,0,1,1,10.7,9.511l-.2,0-.2,0A3.942,3.942,0,0,1,6.563,5.578Z" transform="translate(0)" fill="#fff"/>
</svg>
