<svg id="Group_105" data-name="Group 105" xmlns="http://www.w3.org/2000/svg" width="21.57" height="20.686" viewBox="0 0 21.57 20.686">
  <path id="Path_235" data-name="Path 235" d="M21.325,20.01l-8.779-8.837-.035-.033a2.526,2.526,0,0,0-3.37-.007l-.035.033L.247,20.007A.843.843,0,0,0,1.438,21.2l.669-.667v7.275a3.374,3.374,0,0,0,3.37,3.37H8.51a.843.843,0,0,0,.843-.843V23.469H12.3v6.867a.843.843,0,0,0,.843.843h2.949a3.374,3.374,0,0,0,3.37-3.37.843.843,0,1,0-1.685,0,1.687,1.687,0,0,1-1.685,1.685H13.987V22.626a.843.843,0,0,0-.843-.843H8.51a.843.843,0,0,0-.843.843v6.867H5.477a1.687,1.687,0,0,1-1.685-1.685V18.877q0-.013,0-.025l6.486-6.473a.842.842,0,0,1,1.093,0l6.408,6.45v4.764a.843.843,0,1,0,1.685,0V20.527l.666.671a.843.843,0,0,0,1.2-1.188Z" transform="translate(0 -10.492)" fill="#fff"/>
</svg>
