<svg id="login" xmlns="http://www.w3.org/2000/svg" width="13.008" height="10.822" viewBox="0 0 13.008 10.822">
  <g id="Group_28" data-name="Group 28" transform="translate(0 0)">
    <path id="Path_122" data-name="Path 122" d="M.208,46.252l4.7-4.7a.714.714,0,0,1,1.007,0l.427.427a.707.707,0,0,1,.208.5.721.721,0,0,1-.208.509L3.6,45.74h8.707a.7.7,0,0,1,.7.7v.6a.721.721,0,0,1-.7.731H3.567l2.771,2.762a.705.705,0,0,1,0,1l-.427.425a.714.714,0,0,1-1.007,0l-4.7-4.7a.718.718,0,0,1,0-1.011Z" transform="translate(0 -41.346)" fill="#2c69a5"/>
  </g>
</svg>
