<svg xmlns="http://www.w3.org/2000/svg" width="14.344" height="17" viewBox="0 0 14.344 17">
  <path id="Path_3465" data-name="Path 3465" d="M54.344,15.008a.664.664,0,0,1-.664.664h-.664v.664a.664.664,0,0,1-1.328,0v-.664h-.664a.664.664,0,0,1,0-1.328h.664V13.68a.664.664,0,0,1,1.328,0v.664h.664A.664.664,0,0,1,54.344,15.008Zm0-10.359v6.375a.664.664,0,0,1-1.328,0V5.313H51.688V7.3a.664.664,0,0,1-1.328,0V5.313H43.984V7.3a.664.664,0,0,1-1.328,0V5.313H41.328V15.672h7.039a.664.664,0,0,1,0,1.328h-7.7A.664.664,0,0,1,40,16.336V4.648a.664.664,0,0,1,.664-.664h2.024a4.516,4.516,0,0,1,8.968,0H53.68A.664.664,0,0,1,54.344,4.648Zm-4.029-.664a3.188,3.188,0,0,0-6.286,0Z" transform="translate(-40)" fill="#1f1f23"/>
</svg>
