<svg xmlns="http://www.w3.org/2000/svg" xmlns:xlink="http://www.w3.org/1999/xlink" width="51" height="51" viewBox="0 0 51 51">
  <defs>
    <filter id="Ellipse_3" x="0" y="0" width="51" height="51" filterUnits="userSpaceOnUse">
      <feOffset dy="3" input="SourceAlpha"/>
      <feGaussianBlur stdDeviation="3" result="blur"/>
      <feFlood flood-opacity="0.031"/>
      <feComposite operator="in" in2="blur"/>
      <feComposite in="SourceGraphic"/>
    </filter>
  </defs>
  <g id="Group_8018" data-name="Group 8018" transform="translate(-198.02 -179.02)">
    <g transform="matrix(1, 0, 0, 1, 198.02, 179.02)" filter="url(#Ellipse_3)">
      <circle id="Ellipse_3-2" data-name="Ellipse 3" cx="16.5" cy="16.5" r="16.5" transform="translate(9 6)" fill="#1f1f23"/>
    </g>
    <g id="camera" transform="translate(215.962 195.369)">
      <g id="Group_8017" data-name="Group 8017" transform="translate(0 0)">
        <g id="Group_8016" data-name="Group 8016" transform="translate(0 0)">
          <path id="Path_3497" data-name="Path 3497" d="M13.538,55.314H11.556a.329.329,0,0,1-.313-.226l-.209-.627a1.65,1.65,0,0,0-1.566-1.129H6.38a1.648,1.648,0,0,0-1.566,1.129l-.209.627a.331.331,0,0,1-.314.226H2.311A2.314,2.314,0,0,0,0,57.625v5.943A2.314,2.314,0,0,0,2.311,65.88H13.538a2.314,2.314,0,0,0,2.311-2.311V57.625A2.314,2.314,0,0,0,13.538,55.314ZM7.924,64.559A3.962,3.962,0,1,1,11.887,60.6,3.966,3.966,0,0,1,7.924,64.559Z" transform="translate(0 -53.333)" fill="#fff"/>
        </g>
      </g>
    </g>
  </g>
</svg>
