<svg id="login" xmlns="http://www.w3.org/2000/svg" width="18.773" height="15.619" viewBox="0 0 18.773 15.619">
  <g id="Group_28" data-name="Group 28" transform="translate(0 0)">
    <path id="Path_122" data-name="Path 122" d="M18.473,48.426l-6.78-6.78a1.03,1.03,0,0,0-1.453,0l-.616.616a1.02,1.02,0,0,0-.3.727,1.04,1.04,0,0,0,.3.735l3.955,3.964H1.014A1,1,0,0,0,0,48.7v.87a1.041,1.041,0,0,0,1.014,1.055H13.625l-4,3.986a1.018,1.018,0,0,0,0,1.443l.616.614a1.031,1.031,0,0,0,1.453,0l6.78-6.78a1.036,1.036,0,0,0,0-1.458Z" transform="translate(0 -41.346)" fill="#2c69a5"/>
  </g>
</svg>
